<mxfile host="app.diagrams.net" agent="Mozilla/5.0 (Windows NT 10.0; Win64; x64) AppleWebKit/537.36 (KHTML, like Gecko) Chrome/131.0.0.0 Safari/537.36" version="25.0.3">
  <diagram name="Page-1" id="v9lRdOaoXRXRV4Rd4sSE">
    <mxGraphModel grid="1" page="1" gridSize="10" guides="1" tooltips="1" connect="1" arrows="1" fold="1" pageScale="1" pageWidth="827" pageHeight="1169" math="0" shadow="0">
      <root>
        <mxCell id="0" />
        <mxCell id="1" parent="0" />
        <mxCell id="iB4TVoVHRMelM5AOMNZr-1" value="Client&lt;div&gt;&lt;br&gt;&lt;/div&gt;" style="shape=umlActor;verticalLabelPosition=bottom;verticalAlign=top;html=1;outlineConnect=0;" vertex="1" parent="1">
          <mxGeometry x="-190" y="405" width="30" height="60" as="geometry" />
        </mxCell>
        <mxCell id="iB4TVoVHRMelM5AOMNZr-2" value="Gestion de l&#39;authentification" style="ellipse;whiteSpace=wrap;html=1;" vertex="1" parent="1">
          <mxGeometry x="40" y="80" width="210" height="70" as="geometry" />
        </mxCell>
        <mxCell id="iB4TVoVHRMelM5AOMNZr-16" value="&amp;nbsp;S&#39;inscrire" style="ellipse;whiteSpace=wrap;html=1;" vertex="1" parent="1">
          <mxGeometry x="440" y="-60" width="120" height="50" as="geometry" />
        </mxCell>
        <mxCell id="iB4TVoVHRMelM5AOMNZr-17" value="Se déconnecter" style="ellipse;whiteSpace=wrap;html=1;" vertex="1" parent="1">
          <mxGeometry x="447" y="90" width="120" height="50" as="geometry" />
        </mxCell>
        <mxCell id="iB4TVoVHRMelM5AOMNZr-18" value="Se connecter" style="ellipse;whiteSpace=wrap;html=1;" vertex="1" parent="1">
          <mxGeometry x="440" y="20" width="120" height="50" as="geometry" />
        </mxCell>
        <mxCell id="TNrPEj1zVJxNo0sTicO1-1" value="S&#39;authentifier" style="ellipse;whiteSpace=wrap;html=1;" vertex="1" parent="1">
          <mxGeometry x="95" y="480" width="100" height="55" as="geometry" />
        </mxCell>
        <mxCell id="TNrPEj1zVJxNo0sTicO1-5" value="Navigation et Gestion du Panier" style="ellipse;whiteSpace=wrap;html=1;" vertex="1" parent="1">
          <mxGeometry x="40" y="320" width="210" height="70" as="geometry" />
        </mxCell>
        <mxCell id="TNrPEj1zVJxNo0sTicO1-6" value="Gestion des commandes" style="ellipse;whiteSpace=wrap;html=1;" vertex="1" parent="1">
          <mxGeometry x="40" y="625" width="210" height="70" as="geometry" />
        </mxCell>
        <mxCell id="TNrPEj1zVJxNo0sTicO1-7" value="Gestion du profil" style="ellipse;whiteSpace=wrap;html=1;" vertex="1" parent="1">
          <mxGeometry x="40" y="840" width="210" height="70" as="geometry" />
        </mxCell>
        <mxCell id="TNrPEj1zVJxNo0sTicO1-8" value="Voir les catégories et produits" style="ellipse;whiteSpace=wrap;html=1;" vertex="1" parent="1">
          <mxGeometry x="440" y="160" width="140" height="50" as="geometry" />
        </mxCell>
        <mxCell id="TNrPEj1zVJxNo0sTicO1-9" value="Ajouter des produits au panier" style="ellipse;whiteSpace=wrap;html=1;" vertex="1" parent="1">
          <mxGeometry x="450" y="330" width="120" height="50" as="geometry" />
        </mxCell>
        <mxCell id="TNrPEj1zVJxNo0sTicO1-10" value="Voir les détails d&#39;un produit" style="ellipse;whiteSpace=wrap;html=1;" vertex="1" parent="1">
          <mxGeometry x="450" y="250" width="120" height="50" as="geometry" />
        </mxCell>
        <mxCell id="TNrPEj1zVJxNo0sTicO1-11" value="Modifier les articles du panier" style="ellipse;whiteSpace=wrap;html=1;" vertex="1" parent="1">
          <mxGeometry x="450" y="405" width="120" height="50" as="geometry" />
        </mxCell>
        <mxCell id="TNrPEj1zVJxNo0sTicO1-13" value="Supprimer des articles du panier" style="ellipse;whiteSpace=wrap;html=1;" vertex="1" parent="1">
          <mxGeometry x="450" y="490" width="120" height="50" as="geometry" />
        </mxCell>
        <mxCell id="TNrPEj1zVJxNo0sTicO1-14" value="" style="endArrow=none;html=1;rounded=0;entryX=-0.002;entryY=0.711;entryDx=0;entryDy=0;entryPerimeter=0;exitX=1;exitY=0.5;exitDx=0;exitDy=0;dashed=1;" edge="1" parent="1" source="iB4TVoVHRMelM5AOMNZr-2" target="iB4TVoVHRMelM5AOMNZr-16">
          <mxGeometry width="50" height="50" relative="1" as="geometry">
            <mxPoint x="390" y="140" as="sourcePoint" />
            <mxPoint x="440" y="90" as="targetPoint" />
          </mxGeometry>
        </mxCell>
        <mxCell id="TNrPEj1zVJxNo0sTicO1-15" value="" style="endArrow=none;html=1;rounded=0;entryX=0;entryY=0.5;entryDx=0;entryDy=0;exitX=1;exitY=0.5;exitDx=0;exitDy=0;dashed=1;" edge="1" parent="1" source="iB4TVoVHRMelM5AOMNZr-2" target="iB4TVoVHRMelM5AOMNZr-18">
          <mxGeometry width="50" height="50" relative="1" as="geometry">
            <mxPoint x="390" y="140" as="sourcePoint" />
            <mxPoint x="440" y="90" as="targetPoint" />
          </mxGeometry>
        </mxCell>
        <mxCell id="TNrPEj1zVJxNo0sTicO1-16" value="" style="endArrow=none;html=1;rounded=0;entryX=0;entryY=0.5;entryDx=0;entryDy=0;exitX=1;exitY=0.5;exitDx=0;exitDy=0;dashed=1;" edge="1" parent="1" source="iB4TVoVHRMelM5AOMNZr-2" target="iB4TVoVHRMelM5AOMNZr-17">
          <mxGeometry width="50" height="50" relative="1" as="geometry">
            <mxPoint x="390" y="140" as="sourcePoint" />
            <mxPoint x="440" y="90" as="targetPoint" />
          </mxGeometry>
        </mxCell>
        <mxCell id="TNrPEj1zVJxNo0sTicO1-17" value="" style="endArrow=none;html=1;rounded=0;entryX=0;entryY=0.5;entryDx=0;entryDy=0;exitX=1;exitY=0.5;exitDx=0;exitDy=0;dashed=1;" edge="1" parent="1" source="TNrPEj1zVJxNo0sTicO1-5" target="TNrPEj1zVJxNo0sTicO1-8">
          <mxGeometry width="50" height="50" relative="1" as="geometry">
            <mxPoint x="250" y="620" as="sourcePoint" />
            <mxPoint x="300" y="570" as="targetPoint" />
          </mxGeometry>
        </mxCell>
        <mxCell id="TNrPEj1zVJxNo0sTicO1-18" value="" style="endArrow=none;html=1;rounded=0;entryX=0;entryY=0.5;entryDx=0;entryDy=0;exitX=1;exitY=0.5;exitDx=0;exitDy=0;dashed=1;" edge="1" parent="1" source="TNrPEj1zVJxNo0sTicO1-5" target="TNrPEj1zVJxNo0sTicO1-10">
          <mxGeometry width="50" height="50" relative="1" as="geometry">
            <mxPoint x="250" y="620" as="sourcePoint" />
            <mxPoint x="300" y="570" as="targetPoint" />
          </mxGeometry>
        </mxCell>
        <mxCell id="TNrPEj1zVJxNo0sTicO1-19" value="" style="endArrow=none;html=1;rounded=0;entryX=0;entryY=0.5;entryDx=0;entryDy=0;exitX=1;exitY=0.5;exitDx=0;exitDy=0;dashed=1;" edge="1" parent="1" source="TNrPEj1zVJxNo0sTicO1-5" target="TNrPEj1zVJxNo0sTicO1-9">
          <mxGeometry width="50" height="50" relative="1" as="geometry">
            <mxPoint x="250" y="620" as="sourcePoint" />
            <mxPoint x="300" y="570" as="targetPoint" />
          </mxGeometry>
        </mxCell>
        <mxCell id="TNrPEj1zVJxNo0sTicO1-20" value="" style="endArrow=none;html=1;rounded=0;entryX=0;entryY=0.5;entryDx=0;entryDy=0;exitX=1;exitY=0.5;exitDx=0;exitDy=0;dashed=1;" edge="1" parent="1" source="TNrPEj1zVJxNo0sTicO1-5" target="TNrPEj1zVJxNo0sTicO1-11">
          <mxGeometry width="50" height="50" relative="1" as="geometry">
            <mxPoint x="250" y="620" as="sourcePoint" />
            <mxPoint x="300" y="570" as="targetPoint" />
          </mxGeometry>
        </mxCell>
        <mxCell id="TNrPEj1zVJxNo0sTicO1-21" value="" style="endArrow=none;html=1;rounded=0;entryX=0;entryY=0.5;entryDx=0;entryDy=0;exitX=1;exitY=0.5;exitDx=0;exitDy=0;dashed=1;" edge="1" parent="1" source="TNrPEj1zVJxNo0sTicO1-5" target="TNrPEj1zVJxNo0sTicO1-13">
          <mxGeometry width="50" height="50" relative="1" as="geometry">
            <mxPoint x="250" y="620" as="sourcePoint" />
            <mxPoint x="300" y="570" as="targetPoint" />
          </mxGeometry>
        </mxCell>
        <mxCell id="TNrPEj1zVJxNo0sTicO1-22" value="Passer une commande" style="ellipse;whiteSpace=wrap;html=1;" vertex="1" parent="1">
          <mxGeometry x="453" y="560" width="120" height="50" as="geometry" />
        </mxCell>
        <mxCell id="TNrPEj1zVJxNo0sTicO1-23" value="Consulter l&#39;historique des commandes" style="ellipse;whiteSpace=wrap;html=1;" vertex="1" parent="1">
          <mxGeometry x="453" y="635" width="120" height="50" as="geometry" />
        </mxCell>
        <mxCell id="TNrPEj1zVJxNo0sTicO1-24" value="&amp;nbsp;Voir les détails d&#39;une commande" style="ellipse;whiteSpace=wrap;html=1;" vertex="1" parent="1">
          <mxGeometry x="453" y="720" width="120" height="50" as="geometry" />
        </mxCell>
        <mxCell id="TNrPEj1zVJxNo0sTicO1-25" value="Mettre à jour le nom complet" style="ellipse;whiteSpace=wrap;html=1;" vertex="1" parent="1">
          <mxGeometry x="453" y="800" width="120" height="50" as="geometry" />
        </mxCell>
        <mxCell id="TNrPEj1zVJxNo0sTicO1-26" value="Mettre à jour le mot de passe" style="ellipse;whiteSpace=wrap;html=1;" vertex="1" parent="1">
          <mxGeometry x="453" y="885" width="120" height="50" as="geometry" />
        </mxCell>
        <mxCell id="TNrPEj1zVJxNo0sTicO1-27" value="" style="endArrow=none;html=1;rounded=0;entryX=0;entryY=0.5;entryDx=0;entryDy=0;exitX=1;exitY=0.5;exitDx=0;exitDy=0;dashed=1;" edge="1" parent="1" source="TNrPEj1zVJxNo0sTicO1-6" target="TNrPEj1zVJxNo0sTicO1-22">
          <mxGeometry width="50" height="50" relative="1" as="geometry">
            <mxPoint x="280" y="800" as="sourcePoint" />
            <mxPoint x="330" y="750" as="targetPoint" />
          </mxGeometry>
        </mxCell>
        <mxCell id="TNrPEj1zVJxNo0sTicO1-28" value="" style="endArrow=none;html=1;rounded=0;entryX=0;entryY=0.5;entryDx=0;entryDy=0;exitX=1;exitY=0.5;exitDx=0;exitDy=0;dashed=1;" edge="1" parent="1" source="TNrPEj1zVJxNo0sTicO1-6" target="TNrPEj1zVJxNo0sTicO1-23">
          <mxGeometry width="50" height="50" relative="1" as="geometry">
            <mxPoint x="280" y="800" as="sourcePoint" />
            <mxPoint x="330" y="750" as="targetPoint" />
          </mxGeometry>
        </mxCell>
        <mxCell id="TNrPEj1zVJxNo0sTicO1-29" value="" style="endArrow=none;html=1;rounded=0;entryX=0;entryY=0.5;entryDx=0;entryDy=0;exitX=1;exitY=0.5;exitDx=0;exitDy=0;dashed=1;" edge="1" parent="1" source="TNrPEj1zVJxNo0sTicO1-6" target="TNrPEj1zVJxNo0sTicO1-24">
          <mxGeometry width="50" height="50" relative="1" as="geometry">
            <mxPoint x="280" y="800" as="sourcePoint" />
            <mxPoint x="330" y="750" as="targetPoint" />
          </mxGeometry>
        </mxCell>
        <mxCell id="TNrPEj1zVJxNo0sTicO1-30" value="" style="endArrow=none;html=1;rounded=0;entryX=0;entryY=0.5;entryDx=0;entryDy=0;exitX=1;exitY=0.5;exitDx=0;exitDy=0;dashed=1;" edge="1" parent="1" source="TNrPEj1zVJxNo0sTicO1-7" target="TNrPEj1zVJxNo0sTicO1-25">
          <mxGeometry width="50" height="50" relative="1" as="geometry">
            <mxPoint x="280" y="900" as="sourcePoint" />
            <mxPoint x="330" y="850" as="targetPoint" />
          </mxGeometry>
        </mxCell>
        <mxCell id="TNrPEj1zVJxNo0sTicO1-31" value="" style="endArrow=none;html=1;rounded=0;entryX=0;entryY=0.5;entryDx=0;entryDy=0;exitX=1;exitY=0.5;exitDx=0;exitDy=0;dashed=1;" edge="1" parent="1" source="TNrPEj1zVJxNo0sTicO1-7" target="TNrPEj1zVJxNo0sTicO1-26">
          <mxGeometry width="50" height="50" relative="1" as="geometry">
            <mxPoint x="280" y="900" as="sourcePoint" />
            <mxPoint x="330" y="850" as="targetPoint" />
          </mxGeometry>
        </mxCell>
        <mxCell id="TNrPEj1zVJxNo0sTicO1-35" value="" style="endArrow=none;html=1;rounded=0;entryX=0;entryY=0.5;entryDx=0;entryDy=0;exitX=1;exitY=0.3333333333333333;exitDx=0;exitDy=0;exitPerimeter=0;" edge="1" parent="1" source="iB4TVoVHRMelM5AOMNZr-1" target="iB4TVoVHRMelM5AOMNZr-2">
          <mxGeometry width="50" height="50" relative="1" as="geometry">
            <mxPoint x="-10" y="450" as="sourcePoint" />
            <mxPoint x="40" y="400" as="targetPoint" />
          </mxGeometry>
        </mxCell>
        <mxCell id="TNrPEj1zVJxNo0sTicO1-36" value="" style="endArrow=none;html=1;rounded=0;entryX=0;entryY=0.5;entryDx=0;entryDy=0;exitX=1;exitY=0.3333333333333333;exitDx=0;exitDy=0;exitPerimeter=0;" edge="1" parent="1" source="iB4TVoVHRMelM5AOMNZr-1" target="TNrPEj1zVJxNo0sTicO1-5">
          <mxGeometry width="50" height="50" relative="1" as="geometry">
            <mxPoint x="-10" y="450" as="sourcePoint" />
            <mxPoint x="40" y="400" as="targetPoint" />
          </mxGeometry>
        </mxCell>
        <mxCell id="TNrPEj1zVJxNo0sTicO1-37" value="" style="endArrow=none;html=1;rounded=0;entryX=0;entryY=0.5;entryDx=0;entryDy=0;exitX=1;exitY=0.3333333333333333;exitDx=0;exitDy=0;exitPerimeter=0;" edge="1" parent="1" source="iB4TVoVHRMelM5AOMNZr-1" target="TNrPEj1zVJxNo0sTicO1-6">
          <mxGeometry width="50" height="50" relative="1" as="geometry">
            <mxPoint x="-10" y="450" as="sourcePoint" />
            <mxPoint x="40" y="400" as="targetPoint" />
          </mxGeometry>
        </mxCell>
        <mxCell id="TNrPEj1zVJxNo0sTicO1-38" value="" style="endArrow=none;html=1;rounded=0;exitX=1;exitY=0.3333333333333333;exitDx=0;exitDy=0;exitPerimeter=0;entryX=0;entryY=0.5;entryDx=0;entryDy=0;" edge="1" parent="1" source="iB4TVoVHRMelM5AOMNZr-1" target="TNrPEj1zVJxNo0sTicO1-7">
          <mxGeometry width="50" height="50" relative="1" as="geometry">
            <mxPoint x="-100" y="430" as="sourcePoint" />
            <mxPoint x="40" y="400" as="targetPoint" />
          </mxGeometry>
        </mxCell>
        <mxCell id="TNrPEj1zVJxNo0sTicO1-39" value="&lt;div&gt;Administrateur&lt;/div&gt;" style="shape=umlActor;verticalLabelPosition=bottom;verticalAlign=top;html=1;outlineConnect=0;" vertex="1" parent="1">
          <mxGeometry x="820" y="345" width="30" height="60" as="geometry" />
        </mxCell>
        <mxCell id="TNrPEj1zVJxNo0sTicO1-40" value="Gestion des catégories" style="ellipse;whiteSpace=wrap;html=1;" vertex="1" parent="1">
          <mxGeometry x="1050" y="20" width="210" height="70" as="geometry" />
        </mxCell>
        <mxCell id="TNrPEj1zVJxNo0sTicO1-41" value="Ajouter une nouvelle catégorie" style="ellipse;whiteSpace=wrap;html=1;" vertex="1" parent="1">
          <mxGeometry x="1450" y="-120" width="120" height="50" as="geometry" />
        </mxCell>
        <mxCell id="TNrPEj1zVJxNo0sTicO1-42" value="Supprimer une catégorie et tous les produits qui y sont liés." style="ellipse;whiteSpace=wrap;html=1;" vertex="1" parent="1">
          <mxGeometry x="1418" y="30" width="184" height="60" as="geometry" />
        </mxCell>
        <mxCell id="TNrPEj1zVJxNo0sTicO1-43" value="Modifier une catégorie existante" style="ellipse;whiteSpace=wrap;html=1;" vertex="1" parent="1">
          <mxGeometry x="1450" y="-40" width="120" height="50" as="geometry" />
        </mxCell>
        <mxCell id="TNrPEj1zVJxNo0sTicO1-44" value="Gestion des produits et boissons" style="ellipse;whiteSpace=wrap;html=1;" vertex="1" parent="1">
          <mxGeometry x="1050" y="260" width="210" height="70" as="geometry" />
        </mxCell>
        <mxCell id="TNrPEj1zVJxNo0sTicO1-45" value="Gestion des utilisateurs" style="ellipse;whiteSpace=wrap;html=1;" vertex="1" parent="1">
          <mxGeometry x="1050" y="565" width="210" height="70" as="geometry" />
        </mxCell>
        <mxCell id="TNrPEj1zVJxNo0sTicO1-46" value="Gérer les produits du jour" style="ellipse;whiteSpace=wrap;html=1;" vertex="1" parent="1">
          <mxGeometry x="1050" y="780" width="210" height="70" as="geometry" />
        </mxCell>
        <mxCell id="TNrPEj1zVJxNo0sTicO1-47" value="Ajouter" style="ellipse;whiteSpace=wrap;html=1;" vertex="1" parent="1">
          <mxGeometry x="1450" y="110" width="140" height="50" as="geometry" />
        </mxCell>
        <mxCell id="TNrPEj1zVJxNo0sTicO1-48" value="Supprimer" style="ellipse;whiteSpace=wrap;html=1;" vertex="1" parent="1">
          <mxGeometry x="1457" y="370" width="133" height="50" as="geometry" />
        </mxCell>
        <mxCell id="TNrPEj1zVJxNo0sTicO1-49" value="Modifier" style="ellipse;whiteSpace=wrap;html=1;" vertex="1" parent="1">
          <mxGeometry x="1440" y="240" width="150" height="50" as="geometry" />
        </mxCell>
        <mxCell id="TNrPEj1zVJxNo0sTicO1-52" value="" style="endArrow=none;html=1;rounded=0;entryX=-0.002;entryY=0.711;entryDx=0;entryDy=0;entryPerimeter=0;exitX=1;exitY=0.5;exitDx=0;exitDy=0;dashed=1;" edge="1" parent="1" source="TNrPEj1zVJxNo0sTicO1-40" target="TNrPEj1zVJxNo0sTicO1-41">
          <mxGeometry width="50" height="50" relative="1" as="geometry">
            <mxPoint x="1400" y="80" as="sourcePoint" />
            <mxPoint x="1450" y="30" as="targetPoint" />
          </mxGeometry>
        </mxCell>
        <mxCell id="TNrPEj1zVJxNo0sTicO1-53" value="" style="endArrow=none;html=1;rounded=0;entryX=0;entryY=0.5;entryDx=0;entryDy=0;exitX=1;exitY=0.5;exitDx=0;exitDy=0;dashed=1;" edge="1" parent="1" source="TNrPEj1zVJxNo0sTicO1-40" target="TNrPEj1zVJxNo0sTicO1-43">
          <mxGeometry width="50" height="50" relative="1" as="geometry">
            <mxPoint x="1400" y="80" as="sourcePoint" />
            <mxPoint x="1450" y="30" as="targetPoint" />
          </mxGeometry>
        </mxCell>
        <mxCell id="TNrPEj1zVJxNo0sTicO1-54" value="" style="endArrow=none;html=1;rounded=0;entryX=0;entryY=0.5;entryDx=0;entryDy=0;exitX=1;exitY=0.5;exitDx=0;exitDy=0;dashed=1;" edge="1" parent="1" source="TNrPEj1zVJxNo0sTicO1-40" target="TNrPEj1zVJxNo0sTicO1-42">
          <mxGeometry width="50" height="50" relative="1" as="geometry">
            <mxPoint x="1400" y="80" as="sourcePoint" />
            <mxPoint x="1450" y="30" as="targetPoint" />
          </mxGeometry>
        </mxCell>
        <mxCell id="TNrPEj1zVJxNo0sTicO1-55" value="" style="endArrow=none;html=1;rounded=0;entryX=0;entryY=0.5;entryDx=0;entryDy=0;exitX=1;exitY=0.5;exitDx=0;exitDy=0;dashed=1;" edge="1" parent="1" source="TNrPEj1zVJxNo0sTicO1-44" target="TNrPEj1zVJxNo0sTicO1-47">
          <mxGeometry width="50" height="50" relative="1" as="geometry">
            <mxPoint x="1260" y="560" as="sourcePoint" />
            <mxPoint x="1310" y="510" as="targetPoint" />
          </mxGeometry>
        </mxCell>
        <mxCell id="TNrPEj1zVJxNo0sTicO1-56" value="" style="endArrow=none;html=1;rounded=0;entryX=0;entryY=0.5;entryDx=0;entryDy=0;exitX=1;exitY=0.5;exitDx=0;exitDy=0;dashed=1;" edge="1" parent="1" source="TNrPEj1zVJxNo0sTicO1-44" target="TNrPEj1zVJxNo0sTicO1-49">
          <mxGeometry width="50" height="50" relative="1" as="geometry">
            <mxPoint x="1260" y="560" as="sourcePoint" />
            <mxPoint x="1310" y="510" as="targetPoint" />
          </mxGeometry>
        </mxCell>
        <mxCell id="TNrPEj1zVJxNo0sTicO1-57" value="" style="endArrow=none;html=1;rounded=0;entryX=0;entryY=0.5;entryDx=0;entryDy=0;exitX=1;exitY=0.5;exitDx=0;exitDy=0;dashed=1;" edge="1" parent="1" source="TNrPEj1zVJxNo0sTicO1-44" target="TNrPEj1zVJxNo0sTicO1-48">
          <mxGeometry width="50" height="50" relative="1" as="geometry">
            <mxPoint x="1260" y="560" as="sourcePoint" />
            <mxPoint x="1310" y="510" as="targetPoint" />
          </mxGeometry>
        </mxCell>
        <mxCell id="TNrPEj1zVJxNo0sTicO1-61" value="Récupérer la liste des utilisateurs" style="ellipse;whiteSpace=wrap;html=1;" vertex="1" parent="1">
          <mxGeometry x="1463" y="560" width="127" height="55" as="geometry" />
        </mxCell>
        <mxCell id="TNrPEj1zVJxNo0sTicO1-63" value="Ajouter un produit du jour" style="ellipse;whiteSpace=wrap;html=1;" vertex="1" parent="1">
          <mxGeometry x="1463" y="740" width="120" height="50" as="geometry" />
        </mxCell>
        <mxCell id="TNrPEj1zVJxNo0sTicO1-64" value="Supprimer un produit du jour" style="ellipse;whiteSpace=wrap;html=1;" vertex="1" parent="1">
          <mxGeometry x="1463" y="825" width="120" height="50" as="geometry" />
        </mxCell>
        <mxCell id="TNrPEj1zVJxNo0sTicO1-66" value="" style="endArrow=none;html=1;rounded=0;entryX=0;entryY=0.5;entryDx=0;entryDy=0;exitX=1;exitY=0.5;exitDx=0;exitDy=0;dashed=1;" edge="1" parent="1" source="TNrPEj1zVJxNo0sTicO1-45" target="TNrPEj1zVJxNo0sTicO1-61">
          <mxGeometry width="50" height="50" relative="1" as="geometry">
            <mxPoint x="1290" y="740" as="sourcePoint" />
            <mxPoint x="1340" y="690" as="targetPoint" />
          </mxGeometry>
        </mxCell>
        <mxCell id="TNrPEj1zVJxNo0sTicO1-68" value="" style="endArrow=none;html=1;rounded=0;entryX=0;entryY=0.5;entryDx=0;entryDy=0;exitX=1;exitY=0.5;exitDx=0;exitDy=0;dashed=1;" edge="1" parent="1" source="TNrPEj1zVJxNo0sTicO1-46" target="TNrPEj1zVJxNo0sTicO1-63">
          <mxGeometry width="50" height="50" relative="1" as="geometry">
            <mxPoint x="1290" y="840" as="sourcePoint" />
            <mxPoint x="1340" y="790" as="targetPoint" />
          </mxGeometry>
        </mxCell>
        <mxCell id="TNrPEj1zVJxNo0sTicO1-69" value="" style="endArrow=none;html=1;rounded=0;entryX=0;entryY=0.5;entryDx=0;entryDy=0;exitX=1;exitY=0.5;exitDx=0;exitDy=0;dashed=1;" edge="1" parent="1" source="TNrPEj1zVJxNo0sTicO1-46" target="TNrPEj1zVJxNo0sTicO1-64">
          <mxGeometry width="50" height="50" relative="1" as="geometry">
            <mxPoint x="1290" y="840" as="sourcePoint" />
            <mxPoint x="1340" y="790" as="targetPoint" />
          </mxGeometry>
        </mxCell>
        <mxCell id="TNrPEj1zVJxNo0sTicO1-70" value="" style="endArrow=none;html=1;rounded=0;entryX=0;entryY=0.5;entryDx=0;entryDy=0;exitX=1;exitY=0.3333333333333333;exitDx=0;exitDy=0;exitPerimeter=0;" edge="1" parent="1" source="TNrPEj1zVJxNo0sTicO1-39" target="TNrPEj1zVJxNo0sTicO1-40">
          <mxGeometry width="50" height="50" relative="1" as="geometry">
            <mxPoint x="1000" y="390" as="sourcePoint" />
            <mxPoint x="1050" y="340" as="targetPoint" />
          </mxGeometry>
        </mxCell>
        <mxCell id="TNrPEj1zVJxNo0sTicO1-71" value="" style="endArrow=none;html=1;rounded=0;entryX=0;entryY=0.5;entryDx=0;entryDy=0;exitX=1;exitY=0.3333333333333333;exitDx=0;exitDy=0;exitPerimeter=0;" edge="1" parent="1" source="TNrPEj1zVJxNo0sTicO1-39" target="TNrPEj1zVJxNo0sTicO1-44">
          <mxGeometry width="50" height="50" relative="1" as="geometry">
            <mxPoint x="1000" y="390" as="sourcePoint" />
            <mxPoint x="1050" y="340" as="targetPoint" />
          </mxGeometry>
        </mxCell>
        <mxCell id="TNrPEj1zVJxNo0sTicO1-72" value="" style="endArrow=none;html=1;rounded=0;entryX=0;entryY=0.5;entryDx=0;entryDy=0;exitX=1;exitY=0.3333333333333333;exitDx=0;exitDy=0;exitPerimeter=0;" edge="1" parent="1" source="TNrPEj1zVJxNo0sTicO1-39" target="TNrPEj1zVJxNo0sTicO1-45">
          <mxGeometry width="50" height="50" relative="1" as="geometry">
            <mxPoint x="1000" y="390" as="sourcePoint" />
            <mxPoint x="1050" y="340" as="targetPoint" />
          </mxGeometry>
        </mxCell>
        <mxCell id="TNrPEj1zVJxNo0sTicO1-73" value="" style="endArrow=none;html=1;rounded=0;exitX=1;exitY=0.3333333333333333;exitDx=0;exitDy=0;exitPerimeter=0;entryX=0;entryY=0.5;entryDx=0;entryDy=0;" edge="1" parent="1" source="TNrPEj1zVJxNo0sTicO1-39" target="TNrPEj1zVJxNo0sTicO1-46">
          <mxGeometry width="50" height="50" relative="1" as="geometry">
            <mxPoint x="910" y="370" as="sourcePoint" />
            <mxPoint x="1050" y="340" as="targetPoint" />
          </mxGeometry>
        </mxCell>
        <mxCell id="TNrPEj1zVJxNo0sTicO1-74" value="" style="endArrow=classic;html=1;rounded=0;entryX=0.5;entryY=1;entryDx=0;entryDy=0;exitX=0.5;exitY=0;exitDx=0;exitDy=0;dashed=1;" edge="1" parent="1" source="TNrPEj1zVJxNo0sTicO1-1" target="TNrPEj1zVJxNo0sTicO1-5">
          <mxGeometry width="50" height="50" relative="1" as="geometry">
            <mxPoint x="390" y="380" as="sourcePoint" />
            <mxPoint x="440" y="330" as="targetPoint" />
          </mxGeometry>
        </mxCell>
        <mxCell id="TNrPEj1zVJxNo0sTicO1-77" value="" style="endArrow=classic;html=1;rounded=0;entryX=0.5;entryY=0;entryDx=0;entryDy=0;exitX=0.5;exitY=1;exitDx=0;exitDy=0;dashed=1;" edge="1" parent="1" source="TNrPEj1zVJxNo0sTicO1-1" target="TNrPEj1zVJxNo0sTicO1-6">
          <mxGeometry width="50" height="50" relative="1" as="geometry">
            <mxPoint x="390" y="600" as="sourcePoint" />
            <mxPoint x="440" y="550" as="targetPoint" />
          </mxGeometry>
        </mxCell>
        <mxCell id="TNrPEj1zVJxNo0sTicO1-78" value="&amp;lt;&amp;lt;Include&amp;gt;&amp;gt;" style="text;html=1;align=center;verticalAlign=middle;resizable=0;points=[];autosize=1;strokeColor=none;fillColor=none;" vertex="1" parent="1">
          <mxGeometry x="60" y="425" width="90" height="30" as="geometry" />
        </mxCell>
        <mxCell id="TNrPEj1zVJxNo0sTicO1-79" value="S&#39;authentifier" style="ellipse;whiteSpace=wrap;html=1;" vertex="1" parent="1">
          <mxGeometry x="95" y="1000" width="100" height="55" as="geometry" />
        </mxCell>
        <mxCell id="TNrPEj1zVJxNo0sTicO1-80" value="" style="endArrow=classic;html=1;rounded=0;entryX=0.5;entryY=1;entryDx=0;entryDy=0;exitX=0.5;exitY=0;exitDx=0;exitDy=0;dashed=1;" edge="1" parent="1" source="TNrPEj1zVJxNo0sTicO1-79" target="TNrPEj1zVJxNo0sTicO1-7">
          <mxGeometry width="50" height="50" relative="1" as="geometry">
            <mxPoint x="390" y="900" as="sourcePoint" />
            <mxPoint x="145" y="910" as="targetPoint" />
          </mxGeometry>
        </mxCell>
        <mxCell id="TNrPEj1zVJxNo0sTicO1-81" value="&amp;lt;&amp;lt;Include&amp;gt;&amp;gt;" style="text;html=1;align=center;verticalAlign=middle;resizable=0;points=[];autosize=1;strokeColor=none;fillColor=none;" vertex="1" parent="1">
          <mxGeometry x="75" y="948" width="90" height="30" as="geometry" />
        </mxCell>
        <mxCell id="TNrPEj1zVJxNo0sTicO1-82" value="&amp;lt;&amp;lt;Include&amp;gt;&amp;gt;" style="text;html=1;align=center;verticalAlign=middle;resizable=0;points=[];autosize=1;strokeColor=none;fillColor=none;" vertex="1" parent="1">
          <mxGeometry x="60" y="555" width="90" height="30" as="geometry" />
        </mxCell>
        <mxCell id="TNrPEj1zVJxNo0sTicO1-88" value="S&#39;authentifier" style="ellipse;whiteSpace=wrap;html=1;" vertex="1" parent="1">
          <mxGeometry x="1105" y="685" width="100" height="55" as="geometry" />
        </mxCell>
        <mxCell id="TNrPEj1zVJxNo0sTicO1-89" value="" style="endArrow=classic;html=1;rounded=0;entryX=0.5;entryY=1;entryDx=0;entryDy=0;exitX=0.5;exitY=0;exitDx=0;exitDy=0;dashed=1;" edge="1" parent="1" source="TNrPEj1zVJxNo0sTicO1-88" target="TNrPEj1zVJxNo0sTicO1-45">
          <mxGeometry width="50" height="50" relative="1" as="geometry">
            <mxPoint x="1120" y="605" as="sourcePoint" />
            <mxPoint x="875" y="615" as="targetPoint" />
          </mxGeometry>
        </mxCell>
        <mxCell id="TNrPEj1zVJxNo0sTicO1-90" value="" style="endArrow=classic;html=1;rounded=0;entryX=0.5;entryY=0;entryDx=0;entryDy=0;exitX=0.5;exitY=1;exitDx=0;exitDy=0;dashed=1;" edge="1" parent="1" source="TNrPEj1zVJxNo0sTicO1-88" target="TNrPEj1zVJxNo0sTicO1-46">
          <mxGeometry width="50" height="50" relative="1" as="geometry">
            <mxPoint x="1120" y="825" as="sourcePoint" />
            <mxPoint x="875" y="850" as="targetPoint" />
          </mxGeometry>
        </mxCell>
        <mxCell id="TNrPEj1zVJxNo0sTicO1-91" value="&amp;lt;&amp;lt;Include&amp;gt;&amp;gt;" style="text;html=1;align=center;verticalAlign=middle;resizable=0;points=[];autosize=1;strokeColor=none;fillColor=none;" vertex="1" parent="1">
          <mxGeometry x="1070" y="630" width="90" height="30" as="geometry" />
        </mxCell>
        <mxCell id="TNrPEj1zVJxNo0sTicO1-92" value="&amp;lt;&amp;lt;Include&amp;gt;&amp;gt;" style="text;html=1;align=center;verticalAlign=middle;resizable=0;points=[];autosize=1;strokeColor=none;fillColor=none;" vertex="1" parent="1">
          <mxGeometry x="1070" y="760" width="90" height="30" as="geometry" />
        </mxCell>
        <mxCell id="TNrPEj1zVJxNo0sTicO1-93" value="S&#39;authentifier" style="ellipse;whiteSpace=wrap;html=1;" vertex="1" parent="1">
          <mxGeometry x="1105" y="145" width="100" height="55" as="geometry" />
        </mxCell>
        <mxCell id="TNrPEj1zVJxNo0sTicO1-94" value="" style="endArrow=classic;html=1;rounded=0;entryX=0.5;entryY=1;entryDx=0;entryDy=0;exitX=0.5;exitY=0;exitDx=0;exitDy=0;dashed=1;" edge="1" parent="1" source="TNrPEj1zVJxNo0sTicO1-93" target="TNrPEj1zVJxNo0sTicO1-40">
          <mxGeometry width="50" height="50" relative="1" as="geometry">
            <mxPoint x="1097.5" as="sourcePoint" />
            <mxPoint x="852.5" y="10" as="targetPoint" />
          </mxGeometry>
        </mxCell>
        <mxCell id="TNrPEj1zVJxNo0sTicO1-95" value="" style="endArrow=classic;html=1;rounded=0;entryX=0.5;entryY=0;entryDx=0;entryDy=0;exitX=0.5;exitY=1;exitDx=0;exitDy=0;dashed=1;" edge="1" parent="1" source="TNrPEj1zVJxNo0sTicO1-93" target="TNrPEj1zVJxNo0sTicO1-44">
          <mxGeometry width="50" height="50" relative="1" as="geometry">
            <mxPoint x="1097.5" y="220" as="sourcePoint" />
            <mxPoint x="852.5" y="245" as="targetPoint" />
          </mxGeometry>
        </mxCell>
        <mxCell id="TNrPEj1zVJxNo0sTicO1-96" value="&amp;lt;&amp;lt;Include&amp;gt;&amp;gt;" style="text;html=1;align=center;verticalAlign=middle;resizable=0;points=[];autosize=1;strokeColor=none;fillColor=none;" vertex="1" parent="1">
          <mxGeometry x="1070" y="90" width="90" height="30" as="geometry" />
        </mxCell>
        <mxCell id="TNrPEj1zVJxNo0sTicO1-97" value="&amp;lt;&amp;lt;Include&amp;gt;&amp;gt;" style="text;html=1;align=center;verticalAlign=middle;resizable=0;points=[];autosize=1;strokeColor=none;fillColor=none;" vertex="1" parent="1">
          <mxGeometry x="1070" y="220" width="90" height="30" as="geometry" />
        </mxCell>
      </root>
    </mxGraphModel>
  </diagram>
</mxfile>
